<!DOCTYPE svg PUBLIC "-//W3C//DTD SVG 20010904//EN" "http://www.w3.org/TR/2001/REC-SVG-20010904/DTD/svg10.dtd">
<svg version="1.0" xmlns="http://www.w3.org/2000/svg" width="224px" height="224px" viewBox="0 0 2240 2240" preserveAspectRatio="xMidYMid meet">
<g id="layer101" fill="#00003b" stroke="none">
<path d="M0 1120 l0 -1120 1120 0 1120 0 0 1120 0 1120 -1120 0 -1120 0 0 -1120z"/>
</g>
<g id="layer102" fill="#23174c" stroke="none">
<path d="M0 1120 l0 -1120 1120 0 1120 0 0 1120 0 1120 -1120 0 -1120 0 0 -1120z m1123 983 l-983 -3 0 -980 0 -980 983 -3 982 -2 -987 -3 -988 -2 0 990 0 990 988 -2 987 -3 -982 -2z m350 -280 c-193 -2 -513 -2 -710 0 -197 1 -38 2 352 2 391 0 552 -1 358 -2z m205 -490 l-3 -338 -2 333 -3 332 -130 0 -130 0 -3 -332 -2 -333 -3 338 -2 337 140 0 140 0 -2 -337z m-138 -753 l129 0 4 133 3 132 2 -137 2 -138 -140 0 -140 0 2 138 2 137 3 -132 4 -133 129 0z m-67 -167 c-193 -2 -513 -2 -710 0 -197 1 -38 2 352 2 391 0 552 -1 358 -2z"/>
</g>
<g id="layer103" fill="#747675" stroke="none">
<path d="M410 1120 l0 -700 710 0 710 0 0 700 0 700 -710 0 -710 0 0 -700z m1270 220 l0 -340 -140 0 -140 0 0 340 0 340 140 0 140 0 0 -340z m0 -630 l0 -140 -140 0 -140 0 0 140 0 140 140 0 140 0 0 -140z"/>
</g>
<g id="layer104" fill="#fdfdfe" stroke="none">
<path d="M0 1120 l0 -1120 1120 0 1120 0 0 1120 0 1120 -1120 0 -1120 0 0 -1120z m2110 0 l0 -990 -990 0 -990 0 0 990 0 990 990 0 990 0 0 -990z"/>
<path d="M417 1813 c-4 -3 -7 -316 -7 -695 l0 -688 710 0 710 0 -2 693 -3 692 -701 3 c-385 1 -704 -1 -707 -5z m833 -278 l0 -145 -205 0 -205 0 0 -270 0 -270 205 0 205 0 0 -140 0 -140 -350 0 -350 0 0 548 c0 302 3 552 7 555 3 4 161 7 350 7 l343 0 0 -145z m430 -200 l0 -345 -140 0 -140 0 0 345 0 345 140 0 140 0 0 -345z m0 -625 l0 -140 -140 0 -140 0 0 140 0 140 140 0 140 0 0 -140z"/>
</g>


</svg>